<svg width="93" height="93" viewBox="0 0 93 93" fill="none" xmlns="http://www.w3.org/2000/svg">
<path d="M64.1544 50.0108L62.3913 51.7661C62.3913 51.7661 58.1946 55.9356 46.744 44.5509C35.2934 33.1661 39.49 28.9966 39.49 28.9966L40.5983 27.8884C43.3379 25.1681 43.5975 20.7971 41.2066 17.6041L36.3241 11.0825C33.3636 7.13001 27.648 6.60689 24.2574 9.97814L18.1736 16.0231C16.4958 17.6971 15.372 19.8594 15.5076 22.2619C15.8564 28.4115 18.6386 41.6369 34.1541 57.0671C50.6113 73.4274 66.0531 74.0784 72.3655 73.4894C74.365 73.3034 76.101 72.2881 77.4999 70.8931L83.0024 65.4216C86.7224 61.7288 85.6762 55.3931 80.9177 52.8085L73.5164 48.7824C70.3932 47.089 66.5956 47.585 64.1544 50.0108Z" fill="white"/>
</svg>
