<svg width="65" height="65" viewBox="0 0 65 65" fill="none" xmlns="http://www.w3.org/2000/svg">
<path fill-rule="evenodd" clip-rule="evenodd" d="M44.2134 40.3515L58.7843 54.9223C59.2964 55.4348 59.584 56.1298 59.5837 56.8543C59.5835 57.5788 59.2954 58.2736 58.7829 58.7857C58.2704 59.2979 57.5755 59.5855 56.8509 59.5852C56.1264 59.5849 55.4316 59.2969 54.9195 58.7844L40.3486 44.2135C35.9929 47.5873 30.5154 49.1749 25.0307 48.6535C19.5459 48.132 14.4657 45.5407 10.8237 41.4067C7.18168 37.2726 5.25133 31.9064 5.42537 26.3996C5.59942 20.8928 7.86477 15.6592 11.7606 11.7634C15.6564 7.86757 20.89 5.60222 26.3968 5.42818C31.9036 5.25414 37.2698 7.18448 41.4038 10.8265C45.5379 14.4685 48.1292 19.5487 48.6506 25.0335C49.1721 30.5183 47.5844 35.9957 44.2107 40.3515M27.0832 43.3333C31.393 43.3333 35.5262 41.6213 38.5737 38.5738C41.6212 35.5264 43.3332 31.3931 43.3332 27.0833C43.3332 22.7736 41.6212 18.6403 38.5737 15.5928C35.5262 12.5454 31.393 10.8333 27.0832 10.8333C22.7735 10.8333 18.6402 12.5454 15.5927 15.5928C12.5453 18.6403 10.8332 22.7736 10.8332 27.0833C10.8332 31.3931 12.5453 35.5264 15.5927 38.5738C18.6402 41.6213 22.7735 43.3333 27.0832 43.3333Z" fill="#00D25E"/>
</svg>
