<svg width="86" height="86" viewBox="0 0 86 86" fill="none" xmlns="http://www.w3.org/2000/svg">
<path d="M42.9998 10.75C63.7832 10.75 80.6284 23.8793 80.6284 40.0796C80.6284 56.2763 63.7832 69.4056 43.0034 69.4056C40.9345 69.4019 38.8677 69.2703 36.815 69.0114L21.0197 79.3422C19.2244 80.2917 18.5902 80.1878 19.3283 77.8623L22.5247 64.6828C12.2047 59.4511 5.37842 50.3853 5.37842 40.0796C5.37842 23.8829 22.2201 10.75 43.0034 10.75M64.1738 39.6317L69.4413 34.529C69.7452 34.2133 69.9148 33.792 69.9142 33.3538C69.9137 32.9156 69.7431 32.4947 69.4384 32.1798C69.1337 31.8649 68.7187 31.6805 68.2807 31.6655C67.8428 31.6505 67.4161 31.8061 67.0906 32.0995L60.1819 38.786V33.2605C60.1819 32.8119 60.0037 32.3817 59.6865 32.0645C59.3693 31.7474 58.9392 31.5692 58.4906 31.5692C58.042 31.5692 57.6118 31.7474 57.2946 32.0645C56.9774 32.3817 56.7992 32.8119 56.7992 33.2605V42.4231C56.7396 42.6849 56.7396 42.9568 56.7992 43.2186V48.375C56.7992 48.8236 56.9774 49.2538 57.2946 49.571C57.6118 49.8881 58.042 50.0663 58.4906 50.0663C58.9392 50.0663 59.3693 49.8881 59.6865 49.571C60.0037 49.2538 60.1819 48.8236 60.1819 48.375V43.4909L61.712 42.011L66.829 49.2959C66.9568 49.4778 67.1191 49.6327 67.3067 49.7519C67.4944 49.871 67.7036 49.952 67.9226 49.9903C68.1415 50.0285 68.3659 50.0233 68.5828 49.9749C68.7997 49.9264 69.005 49.8358 69.1868 49.708C69.3687 49.5802 69.5236 49.4179 69.6428 49.2303C69.7619 49.0426 69.8429 48.8334 69.8812 48.6144C69.9195 48.3955 69.9142 48.1711 69.8658 47.9542C69.8174 47.7373 69.7267 47.532 69.5989 47.3502L64.1738 39.6317ZM53.5742 46.526H48.3426V33.3142C48.3226 32.8796 48.1358 32.4694 47.8212 32.1689C47.5065 31.8684 47.0881 31.7007 46.653 31.7007C46.2179 31.7007 45.7996 31.8684 45.4849 32.1689C45.1703 32.4694 44.9835 32.8796 44.9635 33.3142V48.2173C44.9635 49.149 45.716 49.9087 46.6512 49.9087H53.5742C54.0228 49.9087 54.453 49.7305 54.7702 49.4133C55.0874 49.0961 55.2656 48.6659 55.2656 48.2173C55.2656 47.7688 55.0874 47.3386 54.7702 47.0214C54.453 46.7042 54.0228 46.526 53.5742 46.526ZM32.5867 42.6166L35.0807 36.4963L37.3668 42.613L32.5867 42.6166ZM41.6274 44.3617L41.6346 44.3043C41.6334 43.8783 41.4708 43.4686 41.1795 43.1577L37.4313 33.1243C37.2742 32.6462 36.9749 32.2274 36.5734 31.9239C36.172 31.6204 35.6874 31.4466 35.1846 31.4258C34.6785 31.4256 34.1842 31.5785 33.7666 31.8643C33.349 32.1502 33.0276 32.5557 32.8447 33.0276L26.8892 47.6297C26.7195 48.045 26.7218 48.5107 26.8955 48.9243C27.0692 49.3379 27.4002 49.6656 27.8155 49.8352C28.2308 50.0048 28.6965 50.0026 29.1101 49.8288C29.5237 49.6551 29.8514 49.3242 30.021 48.9089L31.2107 45.9957H38.6282L39.696 48.8623C39.7688 49.0766 39.884 49.2741 40.0345 49.4431C40.1851 49.6121 40.368 49.7491 40.5725 49.8461C40.777 49.9431 40.9988 49.9981 41.2249 50.0077C41.4511 50.0174 41.6768 49.9816 41.8888 49.9025C42.1009 49.8233 42.2949 49.7024 42.4593 49.547C42.6238 49.3915 42.7553 49.2046 42.8462 48.9973C42.9371 48.79 42.9855 48.5666 42.9885 48.3403C42.9915 48.114 42.9491 47.8894 42.8637 47.6798L41.6274 44.3617ZM29.72 33.3322C29.7209 33.1101 29.678 32.89 29.5935 32.6846C29.5091 32.4792 29.3849 32.2926 29.228 32.1354C29.0711 31.9782 28.8847 31.8536 28.6795 31.7687C28.4743 31.6838 28.2543 31.6404 28.0323 31.6408H16.4043C15.9558 31.6408 15.5256 31.819 15.2084 32.1362C14.8912 32.4534 14.713 32.8836 14.713 33.3322C14.713 33.7807 14.8912 34.2109 15.2084 34.5281C15.5256 34.8453 15.9558 35.0235 16.4043 35.0235H20.561V48.4108C20.561 48.8594 20.7392 49.2896 21.0564 49.6068C21.3736 49.924 21.8038 50.1022 22.2523 50.1022C22.7009 50.1022 23.1311 49.924 23.4483 49.6068C23.7655 49.2896 23.9437 48.8594 23.9437 48.4108V35.0235H28.0287C28.251 35.0244 28.4714 34.9813 28.677 34.8967C28.8827 34.812 29.0695 34.6875 29.2267 34.5302C29.384 34.373 29.5085 34.1862 29.5932 33.9805C29.6778 33.7749 29.7209 33.5545 29.72 33.3322Z" fill="#FFDE00"/>
</svg>
